<mxfile host="app.diagrams.net" modified="2024-03-28T12:25:43.645Z" agent="Mozilla/5.0 (Macintosh; Intel Mac OS X 10_15_7) AppleWebKit/537.36 (KHTML, like Gecko) Chrome/123.0.0.0 Safari/537.36" etag="kPZ2oUQnOHhiUNJ10FOI" version="23.1.1" type="github">
  <diagram name="Page-1" id="dx0UbN1KDhQHgxMDVQlJ">
    <mxGraphModel dx="1160" dy="756" grid="1" gridSize="10" guides="1" tooltips="1" connect="1" arrows="1" fold="1" page="1" pageScale="1" pageWidth="827" pageHeight="1169" math="0" shadow="0">
      <root>
        <mxCell id="0" />
        <mxCell id="1" parent="0" />
        <mxCell id="Wb7Bm_bJqOq9qxchE__--23" style="edgeStyle=orthogonalEdgeStyle;rounded=0;orthogonalLoop=1;jettySize=auto;html=1;exitX=0.5;exitY=1;exitDx=0;exitDy=0;entryX=0.5;entryY=0;entryDx=0;entryDy=0;" parent="1" source="Wb7Bm_bJqOq9qxchE__--1" target="Wb7Bm_bJqOq9qxchE__--12" edge="1">
          <mxGeometry relative="1" as="geometry" />
        </mxCell>
        <mxCell id="Wb7Bm_bJqOq9qxchE__--35" style="edgeStyle=orthogonalEdgeStyle;rounded=0;orthogonalLoop=1;jettySize=auto;html=1;exitX=0;exitY=0.75;exitDx=0;exitDy=0;entryX=0.25;entryY=0;entryDx=0;entryDy=0;" parent="1" source="Wb7Bm_bJqOq9qxchE__--1" target="Wb7Bm_bJqOq9qxchE__--28" edge="1">
          <mxGeometry relative="1" as="geometry">
            <Array as="points">
              <mxPoint x="250" y="135" />
              <mxPoint x="250" y="290" />
              <mxPoint x="115" y="290" />
            </Array>
          </mxGeometry>
        </mxCell>
        <mxCell id="Wb7Bm_bJqOq9qxchE__--36" value="Manifest" style="edgeLabel;html=1;align=center;verticalAlign=middle;resizable=0;points=[];" parent="Wb7Bm_bJqOq9qxchE__--35" vertex="1" connectable="0">
          <mxGeometry x="-0.3282" y="-1" relative="1" as="geometry">
            <mxPoint x="-79" y="54" as="offset" />
          </mxGeometry>
        </mxCell>
        <mxCell id="Wb7Bm_bJqOq9qxchE__--1" value="1.0&lt;br&gt;at-data-archiver" style="rounded=1;whiteSpace=wrap;html=1;fillColor=#d5e8d4;strokeColor=#82b366;" parent="1" vertex="1">
          <mxGeometry x="280" y="90" width="180" height="60" as="geometry" />
        </mxCell>
        <mxCell id="Wb7Bm_bJqOq9qxchE__--3" value="" style="endArrow=classic;html=1;rounded=0;entryX=1;entryY=0.25;entryDx=0;entryDy=0;exitX=-0.015;exitY=0.339;exitDx=0;exitDy=0;exitPerimeter=0;" parent="1" target="Wb7Bm_bJqOq9qxchE__--1" edge="1">
          <mxGeometry width="50" height="50" relative="1" as="geometry">
            <mxPoint x="668.05" y="107.12" as="sourcePoint" />
            <mxPoint x="440" y="350" as="targetPoint" />
          </mxGeometry>
        </mxCell>
        <mxCell id="Wb7Bm_bJqOq9qxchE__--4" value="Experiment&lt;br style=&quot;border-color: var(--border-color);&quot;&gt;Raw data" style="edgeLabel;html=1;align=center;verticalAlign=middle;resizable=0;points=[];" parent="Wb7Bm_bJqOq9qxchE__--3" vertex="1" connectable="0">
          <mxGeometry x="0.15" relative="1" as="geometry">
            <mxPoint as="offset" />
          </mxGeometry>
        </mxCell>
        <mxCell id="Wb7Bm_bJqOq9qxchE__--6" value="" style="endArrow=classic;html=1;rounded=0;exitX=1;exitY=0.75;exitDx=0;exitDy=0;" parent="1" source="Wb7Bm_bJqOq9qxchE__--1" edge="1">
          <mxGeometry width="50" height="50" relative="1" as="geometry">
            <mxPoint x="710" y="150" as="sourcePoint" />
            <mxPoint x="670" y="135" as="targetPoint" />
          </mxGeometry>
        </mxCell>
        <mxCell id="Wb7Bm_bJqOq9qxchE__--8" value="Experiment&lt;br style=&quot;border-color: var(--border-color);&quot;&gt;Metadata" style="edgeLabel;html=1;align=center;verticalAlign=middle;resizable=0;points=[];" parent="Wb7Bm_bJqOq9qxchE__--6" vertex="1" connectable="0">
          <mxGeometry x="-0.21" relative="1" as="geometry">
            <mxPoint as="offset" />
          </mxGeometry>
        </mxCell>
        <mxCell id="Wb7Bm_bJqOq9qxchE__--11" style="edgeStyle=orthogonalEdgeStyle;rounded=0;orthogonalLoop=1;jettySize=auto;html=1;entryX=0;entryY=0.5;entryDx=0;entryDy=0;" parent="1" target="Wb7Bm_bJqOq9qxchE__--1" edge="1">
          <mxGeometry relative="1" as="geometry">
            <mxPoint x="60" y="120" as="sourcePoint" />
          </mxGeometry>
        </mxCell>
        <mxCell id="Wb7Bm_bJqOq9qxchE__--22" value="Loxo instrument data" style="edgeLabel;html=1;align=center;verticalAlign=middle;resizable=0;points=[];" parent="Wb7Bm_bJqOq9qxchE__--11" vertex="1" connectable="0">
          <mxGeometry x="-0.2185" y="1" relative="1" as="geometry">
            <mxPoint x="34" y="1" as="offset" />
          </mxGeometry>
        </mxCell>
        <mxCell id="Wb7Bm_bJqOq9qxchE__--29" style="edgeStyle=orthogonalEdgeStyle;rounded=0;orthogonalLoop=1;jettySize=auto;html=1;exitX=0.25;exitY=1;exitDx=0;exitDy=0;entryX=0.5;entryY=0;entryDx=0;entryDy=0;" parent="1" source="Wb7Bm_bJqOq9qxchE__--12" target="Wb7Bm_bJqOq9qxchE__--28" edge="1">
          <mxGeometry relative="1" as="geometry" />
        </mxCell>
        <mxCell id="Wb7Bm_bJqOq9qxchE__--30" value="Metadata" style="edgeLabel;html=1;align=center;verticalAlign=middle;resizable=0;points=[];" parent="Wb7Bm_bJqOq9qxchE__--29" vertex="1" connectable="0">
          <mxGeometry x="0.3061" y="-1" relative="1" as="geometry">
            <mxPoint as="offset" />
          </mxGeometry>
        </mxCell>
        <mxCell id="R-Dst_B60V8JOMCjQVf9-5" value="Metadata" style="edgeStyle=orthogonalEdgeStyle;rounded=0;orthogonalLoop=1;jettySize=auto;html=1;" edge="1" parent="1" source="Wb7Bm_bJqOq9qxchE__--12" target="R-Dst_B60V8JOMCjQVf9-4">
          <mxGeometry relative="1" as="geometry" />
        </mxCell>
        <mxCell id="Wb7Bm_bJqOq9qxchE__--12" value="2.0&lt;br&gt;at-data-processor" style="rounded=1;whiteSpace=wrap;html=1;fillColor=#d5e8d4;strokeColor=#82b366;" parent="1" vertex="1">
          <mxGeometry x="280" y="220" width="180" height="60" as="geometry" />
        </mxCell>
        <mxCell id="Wb7Bm_bJqOq9qxchE__--25" style="edgeStyle=orthogonalEdgeStyle;rounded=0;orthogonalLoop=1;jettySize=auto;html=1;entryX=0;entryY=0.5;entryDx=0;entryDy=0;" parent="1" source="Wb7Bm_bJqOq9qxchE__--24" target="Wb7Bm_bJqOq9qxchE__--12" edge="1">
          <mxGeometry relative="1" as="geometry">
            <Array as="points">
              <mxPoint x="170" y="250" />
              <mxPoint x="170" y="250" />
            </Array>
          </mxGeometry>
        </mxCell>
        <mxCell id="Wb7Bm_bJqOq9qxchE__--26" value="Extraction strategy" style="edgeLabel;html=1;align=center;verticalAlign=middle;resizable=0;points=[];" parent="Wb7Bm_bJqOq9qxchE__--25" vertex="1" connectable="0">
          <mxGeometry x="0.2" relative="1" as="geometry">
            <mxPoint x="-26" as="offset" />
          </mxGeometry>
        </mxCell>
        <mxCell id="Wb7Bm_bJqOq9qxchE__--24" value="Thalamus DB" style="html=1;dashed=0;whiteSpace=wrap;shape=partialRectangle;right=0;fillColor=#e1d5e7;strokeColor=#9673a6;" parent="1" vertex="1">
          <mxGeometry x="20" y="210" width="100" height="55" as="geometry" />
        </mxCell>
        <mxCell id="R-Dst_B60V8JOMCjQVf9-2" style="edgeStyle=orthogonalEdgeStyle;rounded=0;orthogonalLoop=1;jettySize=auto;html=1;exitX=0;exitY=0.5;exitDx=0;exitDy=0;" edge="1" parent="1" source="Wb7Bm_bJqOq9qxchE__--28">
          <mxGeometry relative="1" as="geometry">
            <mxPoint x="60" y="265" as="targetPoint" />
            <Array as="points">
              <mxPoint x="60" y="390" />
              <mxPoint x="60" y="265" />
            </Array>
          </mxGeometry>
        </mxCell>
        <mxCell id="R-Dst_B60V8JOMCjQVf9-3" value="Manifest / Metadata" style="edgeLabel;html=1;align=center;verticalAlign=middle;resizable=0;points=[];" vertex="1" connectable="0" parent="R-Dst_B60V8JOMCjQVf9-2">
          <mxGeometry x="0.3732" relative="1" as="geometry">
            <mxPoint x="15" as="offset" />
          </mxGeometry>
        </mxCell>
        <mxCell id="Wb7Bm_bJqOq9qxchE__--28" value="3.0&lt;br&gt;at-data-server" style="rounded=1;whiteSpace=wrap;html=1;fillColor=#d5e8d4;strokeColor=#82b366;" parent="1" vertex="1">
          <mxGeometry x="70" y="360" width="180" height="60" as="geometry" />
        </mxCell>
        <mxCell id="R-Dst_B60V8JOMCjQVf9-7" style="edgeStyle=orthogonalEdgeStyle;rounded=0;orthogonalLoop=1;jettySize=auto;html=1;exitX=1;exitY=0.5;exitDx=0;exitDy=0;" edge="1" parent="1" source="R-Dst_B60V8JOMCjQVf9-4">
          <mxGeometry relative="1" as="geometry">
            <mxPoint x="660" y="460" as="targetPoint" />
          </mxGeometry>
        </mxCell>
        <mxCell id="R-Dst_B60V8JOMCjQVf9-8" value="AT-portal metadata" style="edgeLabel;html=1;align=center;verticalAlign=middle;resizable=0;points=[];" vertex="1" connectable="0" parent="R-Dst_B60V8JOMCjQVf9-7">
          <mxGeometry x="-0.239" relative="1" as="geometry">
            <mxPoint as="offset" />
          </mxGeometry>
        </mxCell>
        <mxCell id="R-Dst_B60V8JOMCjQVf9-4" value="4.0&lt;br&gt;at-portal-service" style="rounded=1;whiteSpace=wrap;html=1;fillColor=#d5e8d4;strokeColor=#82b366;" vertex="1" parent="1">
          <mxGeometry x="280" y="430" width="180" height="60" as="geometry" />
        </mxCell>
      </root>
    </mxGraphModel>
  </diagram>
</mxfile>
